<svg width="453" height="140" viewBox="0 0 453 140" fill="none" xmlns="http://www.w3.org/2000/svg">
<path d="M2.47602 20.6452C3.99217 16.7154 6.32738 13.1603 9.40325 10.0844C12.2438 7.24382 15.6073 4.93474 19.3976 3.21818C23.0922 1.53648 27.0132 0.499576 31.0389 0.142322C35.2475 -0.232358 39.3777 0.142322 43.2987 1.27508C47.4115 2.46011 51.594 4.70819 55.7155 7.94961C56.0466 8.21102 56.3777 8.47242 56.6914 8.74254C60.4382 5.62311 64.9169 2.73894 69.9969 1.27508C73.918 0.142322 78.0482 -0.232358 82.2568 0.142322C86.2824 0.499576 90.1948 1.53648 93.898 3.21818C97.6884 4.94346 101.052 7.25253 103.892 10.0844C106.977 13.1603 109.312 16.7154 110.82 20.6452C112.867 25.9517 113.643 31.7723 113.12 37.9589C112.676 43.2915 111.22 48.842 108.92 54.0091C107.857 56.4054 106.472 58.9497 104.781 61.6334C102.193 65.7375 98.8908 70.164 94.9 74.8692C89.1056 81.6919 81.9954 88.959 73.7437 96.4874C76.105 98.0907 78.5187 99.6766 80.9759 101.254C91.4669 107.981 102.463 114.246 113.643 119.874L105.234 136.587C93.471 130.67 81.9169 124.083 70.8769 117.008C66.8426 114.42 62.9041 111.788 59.0963 109.131C54.7396 112.695 50.2347 116.206 45.6165 119.648C35.7441 127.019 25.8369 133.694 16.1649 139.497L6.5365 123.456C15.6682 117.975 25.0527 111.649 34.4284 104.652C37.5391 102.325 40.5976 99.9728 43.595 97.594C42.8282 96.9841 42.0614 96.3654 41.3033 95.7555C32.3372 88.4797 24.6606 81.3172 18.5088 74.4771C14.5006 70.0245 11.1721 65.7375 8.54933 61.6596C6.8502 59.0194 5.45603 56.4663 4.35813 54.0091C2.05777 48.842 0.60262 43.2915 0.158231 37.9589C-0.364578 31.781 0.410925 25.9517 2.4586 20.6452H2.47602ZM18.8225 36.3905C19.1014 39.658 20.0163 43.126 21.4714 46.4023C25.5232 55.5079 37.0512 68.1947 53.1101 81.2301C54.7831 82.5894 56.491 83.94 58.2424 85.2906C58.9395 84.6719 59.6278 84.0533 60.3075 83.4346C76.3316 68.9179 87.8247 55.4207 91.8329 46.4023C93.2968 43.126 94.2117 39.658 94.4818 36.3905C94.7606 33.0532 94.386 30.0209 93.3665 27.372C92.1466 24.209 89.3408 21.6472 85.96 20.1572C83.8426 19.2249 81.4987 18.7021 79.1722 18.7021C76.8457 18.7021 76.471 18.8763 75.1814 19.251C70.4413 20.6103 65.248 26.2479 63.5402 28.1039L56.4561 35.7805L49.6073 27.8948C45.7298 23.4335 41.4515 20.2008 38.1491 19.251C34.6201 18.2402 30.7077 18.6846 27.3618 20.1572C23.9722 21.6559 21.1665 24.209 19.9466 27.372C18.9271 30.0209 18.5524 33.0532 18.8313 36.3905H18.8225Z" fill="#B14145"/>
<path d="M59.1137 109.122C62.9215 111.78 66.8513 114.411 70.8943 116.999C81.9343 124.074 93.4884 130.662 105.252 136.578L113.66 119.866C102.472 114.237 91.4843 107.972 80.9933 101.245C78.5361 99.6679 76.1224 98.082 73.7611 96.4787C73.7611 96.4787 67.9492 102.108 59.1224 109.113L59.1137 109.122Z" fill="#4A64AE"/>
<path d="M8.56669 61.65C11.1807 65.7192 14.5093 70.0063 18.5262 74.4676C24.6867 81.3077 32.3545 88.4702 41.3207 95.7459C42.0788 96.3559 42.8369 96.9745 43.6124 97.5845C47.1762 94.7787 58.2423 85.281 58.2423 85.281C56.4909 83.9304 54.7831 82.5798 53.1101 81.2205C37.0511 68.1852 25.5231 55.4983 21.4714 46.3927C20.0075 43.1164 19.0926 39.6485 18.8225 36.3809C18.5436 33.0436 18.9183 30.0113 19.9378 27.3624C21.1577 24.1907 23.9634 21.6377 27.353 20.1477C15.1279 25.0098 0.0361738 46.3056 8.5754 61.65H8.56669Z" fill="#4A64AE"/>
<path d="M6.56261 123.455L16.191 139.497C25.8543 133.693 35.7703 127.019 45.6426 119.647C50.2608 116.205 54.7569 112.694 59.1224 109.13C67.9492 102.133 73.7611 96.4954 73.7611 96.4954C82.0128 88.967 89.123 81.6999 94.9174 74.8772C98.9082 70.1807 102.211 65.7542 104.799 61.6414C113.364 46.3057 98.2373 25.0273 85.9687 20.1652C89.3582 21.6639 92.1553 24.217 93.3752 27.38C94.3946 30.0289 94.7693 33.0612 94.4905 36.3984C94.2117 39.6747 93.2967 43.134 91.8416 46.4103C87.8334 55.42 76.3403 68.9172 60.3162 83.4426C59.6278 84.0613 58.9394 84.6799 58.2511 85.2986C58.2511 85.2986 47.1936 94.7963 43.6211 97.602C40.6324 99.9808 37.5739 102.342 34.4545 104.66C25.0788 111.657 15.6944 117.983 6.56261 123.464V123.455Z" fill="#C1272B"/>
<path d="M0.175601 37.9589C0.619989 43.2915 2.07515 48.842 4.37551 54.0091C5.4647 56.4576 6.86757 59.0107 8.5667 61.6596C0.0274754 46.3151 15.128 25.0194 27.3443 20.1572C30.6903 18.6846 34.6026 18.2402 38.1316 19.251C41.434 20.2008 45.7123 23.4335 49.5898 27.8948L56.4386 35.7805L63.5227 28.1039C65.2305 26.2479 70.4325 20.619 75.1639 19.251C76.4622 18.8763 77.8041 18.7021 79.1547 18.7021C81.4812 18.7021 83.8251 19.2249 85.9425 20.1572C98.2111 25.0194 113.338 46.2977 104.772 61.6335C106.463 58.9497 107.84 56.4054 108.911 54.0091C111.212 48.842 112.667 43.2915 113.111 37.9589C113.634 31.781 112.859 25.9517 110.811 20.6452C109.295 16.7154 106.959 13.1603 103.884 10.0844C101.043 7.24382 97.6796 4.93474 93.8892 3.21818C90.1947 1.53648 86.2736 0.499576 82.248 0.142322C78.0394 -0.232358 73.9092 0.142322 69.9881 1.27508C64.9081 2.73894 60.4294 5.62311 56.6826 8.74254C56.3602 8.48113 56.0378 8.21102 55.7067 7.94961C51.5852 4.70819 47.4115 2.46011 43.29 1.27508C39.3689 0.142322 35.2387 -0.232358 31.0301 0.142322C27.0045 0.499576 23.0921 1.53648 19.3889 3.21818C15.5985 4.94346 12.2351 7.25253 9.39448 10.0844C6.3099 13.1603 3.97469 16.7154 2.46725 20.6452C0.419583 25.9517 -0.35592 31.7723 0.166889 37.9589H0.175601Z" fill="#991E20"/>
<path d="M308.147 119.513C308.147 120.276 308.096 120.963 307.995 121.573H292.543C292.67 123.099 293.204 124.295 294.145 125.16C295.086 126.024 296.244 126.457 297.617 126.457C299.601 126.457 301.013 125.605 301.852 123.901H307.613C307.003 125.935 305.833 127.614 304.103 128.937C302.373 130.234 300.25 130.882 297.732 130.882C295.697 130.882 293.865 130.437 292.238 129.547C290.635 128.631 289.376 127.347 288.46 125.694C287.57 124.04 287.125 122.133 287.125 119.971C287.125 117.783 287.57 115.863 288.46 114.21C289.351 112.557 290.597 111.285 292.199 110.395C293.802 109.504 295.646 109.059 297.732 109.059C299.741 109.059 301.534 109.492 303.111 110.356C304.713 111.221 305.947 112.455 306.812 114.057C307.702 115.634 308.147 117.453 308.147 119.513ZM302.615 117.987C302.59 116.613 302.094 115.52 301.127 114.706C300.161 113.866 298.978 113.447 297.579 113.447C296.256 113.447 295.137 113.854 294.221 114.668C293.331 115.456 292.784 116.563 292.581 117.987H302.615Z" fill="#991E20"/>
<path d="M264.174 119.971C264.174 117.783 264.619 115.876 265.509 114.248C266.4 112.595 267.633 111.323 269.21 110.433C270.787 109.517 272.593 109.059 274.628 109.059C277.248 109.059 279.41 109.721 281.114 111.043C282.843 112.34 284.001 114.172 284.586 116.537H278.825C278.519 115.621 277.998 114.909 277.26 114.401C276.548 113.866 275.658 113.599 274.59 113.599C273.064 113.599 271.855 114.159 270.965 115.278C270.075 116.372 269.63 117.936 269.63 119.971C269.63 121.98 270.075 123.544 270.965 124.664C271.855 125.757 273.064 126.304 274.59 126.304C276.752 126.304 278.163 125.338 278.825 123.405H284.586C284.001 125.694 282.843 127.512 281.114 128.86C279.384 130.208 277.222 130.882 274.628 130.882C272.593 130.882 270.787 130.437 269.21 129.547C267.633 128.631 266.4 127.36 265.509 125.732C264.619 124.079 264.174 122.158 264.174 119.971Z" fill="#991E20"/>
<path d="M252.037 109.098C254.555 109.098 256.589 109.899 258.141 111.501C259.692 113.078 260.468 115.291 260.468 118.14V130.539H255.127V118.865C255.127 117.186 254.707 115.901 253.868 115.011C253.029 114.096 251.884 113.638 250.434 113.638C248.959 113.638 247.789 114.096 246.924 115.011C246.085 115.901 245.665 117.186 245.665 118.865V130.539H240.324V109.403H245.665V112.035C246.377 111.12 247.28 110.408 248.374 109.899C249.493 109.365 250.714 109.098 252.037 109.098Z" fill="#991E20"/>
<path d="M213.093 119.895C213.093 117.758 213.513 115.863 214.352 114.21C215.217 112.557 216.374 111.285 217.824 110.395C219.299 109.504 220.94 109.059 222.746 109.059C224.323 109.059 225.696 109.377 226.866 110.013C228.062 110.649 229.015 111.45 229.728 112.417V109.403H235.107V130.539H229.728V127.449C229.041 128.441 228.087 129.267 226.866 129.929C225.671 130.564 224.284 130.882 222.708 130.882C220.927 130.882 219.299 130.425 217.824 129.509C216.374 128.593 215.217 127.309 214.352 125.656C213.513 123.977 213.093 122.056 213.093 119.895ZM229.728 119.971C229.728 118.674 229.473 117.567 228.965 116.652C228.456 115.71 227.769 114.998 226.904 114.515C226.04 114.006 225.111 113.752 224.119 113.752C223.127 113.752 222.212 113.994 221.372 114.477C220.533 114.96 219.846 115.672 219.312 116.613C218.803 117.529 218.549 118.623 218.549 119.895C218.549 121.166 218.803 122.285 219.312 123.252C219.846 124.193 220.533 124.918 221.372 125.427C222.237 125.935 223.153 126.19 224.119 126.19C225.111 126.19 226.04 125.948 226.904 125.465C227.769 124.956 228.456 124.244 228.965 123.328C229.473 122.387 229.728 121.268 229.728 119.971Z" fill="#991E20"/>
<path d="M206.557 106.885C205.616 106.885 204.827 106.592 204.191 106.007C203.581 105.397 203.276 104.647 203.276 103.756C203.276 102.866 203.581 102.129 204.191 101.544C204.827 100.933 205.616 100.628 206.557 100.628C207.498 100.628 208.274 100.933 208.884 101.544C209.52 102.129 209.838 102.866 209.838 103.756C209.838 104.647 209.52 105.397 208.884 106.007C208.274 106.592 207.498 106.885 206.557 106.885ZM209.189 109.403V130.539H203.848V109.403H209.189Z" fill="#991E20"/>
<path d="M198.571 102.307V130.54H193.229V102.307H198.571Z" fill="#991E20"/>
<path d="M187.952 102.307V130.54H182.611V102.307H187.952Z" fill="#991E20"/>
<path d="M171.63 125.465H161.023L159.268 130.539H153.66L163.236 103.87H169.455L179.031 130.539H173.385L171.63 125.465ZM170.18 121.192L166.327 110.051L162.473 121.192H170.18Z" fill="#991E20"/>
<path d="M446.152 66.6766C446.838 65.5575 447.728 64.68 448.822 64.0441C449.941 63.4082 451.213 63.0903 452.637 63.0903V68.6987H451.226C449.547 68.6987 448.275 69.093 447.411 69.8814C446.571 70.6699 446.152 72.0434 446.152 74.0019V84.532H440.81V63.3955H446.152V66.6766Z" fill="#991E20"/>
<path d="M413.579 73.8872C413.579 71.7507 413.999 69.8558 414.839 68.2025C415.703 66.5493 416.861 65.2775 418.31 64.3873C419.786 63.4971 421.426 63.052 423.232 63.052C424.809 63.052 426.182 63.3699 427.352 64.0058C428.548 64.6416 429.502 65.4428 430.214 66.4094V63.3953H435.593V84.5317H430.214V81.4414C429.527 82.4334 428.573 83.26 427.352 83.9213C426.157 84.5572 424.771 84.8751 423.194 84.8751C421.413 84.8751 419.786 84.4173 418.31 83.5016C416.861 82.586 415.703 81.3015 414.839 79.6482C413.999 77.9695 413.579 76.0492 413.579 73.8872ZM430.214 73.9635C430.214 72.6664 429.96 71.5599 429.451 70.6443C428.942 69.7032 428.255 68.991 427.391 68.5077C426.526 67.999 425.597 67.7447 424.605 67.7447C423.614 67.7447 422.698 67.9863 421.859 68.4696C421.019 68.9529 420.332 69.665 419.798 70.6061C419.29 71.5218 419.035 72.6155 419.035 73.8872C419.035 75.159 419.29 76.2781 419.798 77.2446C420.332 78.1857 421.019 78.9106 421.859 79.4193C422.723 79.928 423.639 80.1824 424.605 80.1824C425.597 80.1824 426.526 79.9407 427.391 79.4575C428.255 78.9488 428.942 78.2366 429.451 77.3209C429.96 76.3799 430.214 75.2607 430.214 73.9635Z" fill="#991E20"/>
<path d="M409.676 56.2995V84.5322H404.334V56.2995H409.676Z" fill="#991E20"/>
<path d="M399.064 63.396V84.5325H393.685V81.8618C392.998 82.7775 392.095 83.5024 390.976 84.0365C389.882 84.5452 388.687 84.7995 387.39 84.7995C385.736 84.7995 384.274 84.4562 383.002 83.7694C381.73 83.0572 380.726 82.0271 379.988 80.6791C379.276 79.3056 378.92 77.6778 378.92 75.7956V63.396H384.261V75.0325C384.261 76.7112 384.681 78.0084 385.52 78.9241C386.36 79.8143 387.504 80.2594 388.954 80.2594C390.429 80.2594 391.586 79.8143 392.426 78.9241C393.265 78.0084 393.685 76.7112 393.685 75.0325V63.396H399.064Z" fill="#991E20"/>
<path d="M354.786 73.9635C354.786 71.7761 355.231 69.8685 356.121 68.2407C357.012 66.5874 358.245 65.3157 359.822 64.4254C361.399 63.5098 363.205 63.052 365.24 63.052C367.86 63.052 370.022 63.7133 371.726 65.0359C373.455 66.3331 374.613 68.1644 375.198 70.5298H369.437C369.131 69.6142 368.61 68.902 367.872 68.3933C367.16 67.8592 366.27 67.5921 365.202 67.5921C363.676 67.5921 362.467 68.1517 361.577 69.2708C360.687 70.3645 360.242 71.9287 360.242 73.9635C360.242 75.9729 360.687 77.5371 361.577 78.6563C362.467 79.75 363.676 80.2968 365.202 80.2968C367.364 80.2968 368.775 79.3303 369.437 77.3972H375.198C374.613 79.6864 373.455 81.505 371.726 82.853C369.996 84.2011 367.834 84.8751 365.24 84.8751C363.205 84.8751 361.399 84.43 359.822 83.5398C358.245 82.6241 357.012 81.3524 356.121 79.7245C355.231 78.0713 354.786 76.1509 354.786 73.9635Z" fill="#991E20"/>
<path d="M343.458 84.8751C341.728 84.8751 340.177 84.5699 338.803 83.9595C337.43 83.3236 336.336 82.4715 335.522 81.4033C334.734 80.335 334.301 79.1523 334.225 77.8551H339.604C339.706 78.669 340.1 79.343 340.787 79.8772C341.499 80.4113 342.377 80.6784 343.42 80.6784C344.437 80.6784 345.226 80.4749 345.785 80.0679C346.37 79.661 346.663 79.1395 346.663 78.5037C346.663 77.8169 346.307 77.3082 345.594 76.9776C344.908 76.6215 343.801 76.24 342.275 75.833C340.698 75.4515 339.401 75.0572 338.384 74.6503C337.392 74.2433 336.527 73.6202 335.789 72.7808C335.077 71.9415 334.721 70.8096 334.721 69.3852C334.721 68.2152 335.052 67.147 335.713 66.1805C336.4 65.2139 337.366 64.4509 338.612 63.8913C339.884 63.3317 341.372 63.052 343.076 63.052C345.594 63.052 347.604 63.6878 349.104 64.9596C350.605 66.2059 351.432 67.8973 351.584 70.0338H346.472C346.396 69.1945 346.039 68.5332 345.404 68.0499C344.793 67.5412 343.967 67.2869 342.924 67.2869C341.957 67.2869 341.207 67.4649 340.673 67.821C340.164 68.1771 339.91 68.6731 339.91 69.3089C339.91 70.0211 340.266 70.568 340.978 70.9495C341.69 71.3056 342.796 71.6744 344.297 72.0559C345.823 72.4374 347.082 72.8317 348.074 73.2386C349.066 73.6456 349.918 74.2815 350.63 75.1463C351.368 75.9856 351.75 77.1047 351.775 78.5037C351.775 79.7245 351.432 80.8182 350.745 81.7848C350.084 82.7513 349.117 83.5144 347.845 84.0739C346.599 84.6081 345.136 84.8751 343.458 84.8751Z" fill="#991E20"/>
<path d="M308.139 73.8872C308.139 71.7507 308.558 69.8558 309.398 68.2025C310.263 66.5493 311.42 65.2775 312.87 64.3873C314.345 63.4971 315.985 63.052 317.791 63.052C319.368 63.052 320.742 63.3699 321.912 64.0058C323.107 64.6416 324.061 65.4428 324.773 66.4094V63.3953H330.153V84.5317H324.773V81.4414C324.086 82.4334 323.133 83.26 321.912 83.9213C320.716 84.5572 319.33 84.8751 317.753 84.8751C315.973 84.8751 314.345 84.4173 312.87 83.5016C311.42 82.586 310.263 81.3015 309.398 79.6482C308.558 77.9695 308.139 76.0492 308.139 73.8872ZM324.773 73.9635C324.773 72.6664 324.519 71.5599 324.01 70.6443C323.501 69.7032 322.815 68.991 321.95 68.5077C321.085 67.999 320.157 67.7447 319.165 67.7447C318.173 67.7447 317.257 67.9863 316.418 68.4696C315.578 68.9529 314.892 69.665 314.358 70.6061C313.849 71.5218 313.595 72.6155 313.595 73.8872C313.595 75.159 313.849 76.2781 314.358 77.2446C314.892 78.1857 315.578 78.9106 316.418 79.4193C317.283 79.928 318.198 80.1824 319.165 80.1824C320.157 80.1824 321.085 79.9407 321.95 79.4575C322.815 78.9488 323.501 78.2366 324.01 77.3209C324.519 76.3799 324.773 75.2607 324.773 73.9635Z" fill="#991E20"/>
<path d="M295.486 79.6108L300.828 63.396H306.512L298.691 84.5325H292.205L284.422 63.396H290.145L295.486 79.6108Z" fill="#991E20"/>
<path d="M271.729 84.8751C269.694 84.8751 267.863 84.43 266.235 83.5398C264.607 82.6241 263.323 81.3397 262.382 79.6864C261.466 78.0331 261.008 76.1255 261.008 73.9635C261.008 71.8016 261.479 69.8939 262.42 68.2407C263.386 66.5874 264.696 65.3157 266.349 64.4254C268.003 63.5098 269.847 63.052 271.882 63.052C273.916 63.052 275.76 63.5098 277.414 64.4254C279.067 65.3157 280.364 66.5874 281.305 68.2407C282.272 69.8939 282.755 71.8016 282.755 73.9635C282.755 76.1255 282.259 78.0331 281.267 79.6864C280.301 81.3397 278.978 82.6241 277.299 83.5398C275.646 84.43 273.789 84.8751 271.729 84.8751ZM271.729 80.2205C272.695 80.2205 273.598 79.9916 274.438 79.5338C275.303 79.0505 275.989 78.3383 276.498 77.3972C277.007 76.4562 277.261 75.3116 277.261 73.9635C277.261 71.9542 276.727 70.4154 275.659 69.3471C274.616 68.2534 273.331 67.7065 271.805 67.7065C270.279 67.7065 268.995 68.2534 267.952 69.3471C266.934 70.4154 266.426 71.9542 266.426 73.9635C266.426 75.9729 266.922 77.5244 267.914 78.6181C268.931 79.6864 270.203 80.2205 271.729 80.2205Z" fill="#991E20"/>
<path d="M254.434 60.8776C253.493 60.8776 252.704 60.5851 252.068 60.0001C251.458 59.3897 251.153 58.6394 251.153 57.7491C251.153 56.8589 251.458 56.1213 252.068 55.5363C252.704 54.9259 253.493 54.6206 254.434 54.6206C255.375 54.6206 256.151 54.9259 256.761 55.5363C257.397 56.1213 257.715 56.8589 257.715 57.7491C257.715 58.6394 257.397 59.3897 256.761 60.0001C256.151 60.5851 255.375 60.8776 254.434 60.8776ZM257.066 63.3957V84.5321H251.725V63.3957H257.066Z" fill="#991E20"/>
<path d="M224.494 73.8877C224.494 71.7512 224.914 69.8563 225.753 68.203C226.618 66.5497 227.788 65.278 229.263 64.3878C230.738 63.4975 232.379 63.0524 234.185 63.0524C235.558 63.0524 236.868 63.3576 238.115 63.9681C239.361 64.5531 240.353 65.3416 241.09 66.3335V56.2995H246.508V84.5322H241.09V81.4037C240.429 82.4466 239.501 83.2859 238.305 83.9218C237.11 84.5577 235.724 84.8756 234.147 84.8756C232.366 84.8756 230.738 84.4178 229.263 83.5021C227.788 82.5864 226.618 81.302 225.753 79.6487C224.914 77.97 224.494 76.0497 224.494 73.8877ZM241.129 73.964C241.129 72.6668 240.874 71.5604 240.366 70.6448C239.857 69.7037 239.17 68.9915 238.305 68.5082C237.441 67.9995 236.512 67.7452 235.52 67.7452C234.528 67.7452 233.613 67.9868 232.773 68.4701C231.934 68.9533 231.247 69.6655 230.713 70.6066C230.204 71.5223 229.95 72.616 229.95 73.8877C229.95 75.1594 230.204 76.2786 230.713 77.2451C231.247 78.1862 231.934 78.9111 232.773 79.4198C233.638 79.9285 234.554 80.1828 235.52 80.1828C236.512 80.1828 237.441 79.9412 238.305 79.4579C239.17 78.9492 239.857 78.2371 240.366 77.3214C240.874 76.3803 241.129 75.2612 241.129 73.964Z" fill="#991E20"/>
<path d="M215.784 66.6766C216.471 65.5575 217.361 64.68 218.455 64.0441C219.574 63.4082 220.846 63.0903 222.27 63.0903V68.6987H220.858C219.18 68.6987 217.908 69.093 217.043 69.8814C216.204 70.6699 215.784 72.0434 215.784 74.0019V84.532H210.443V63.3955H215.784V66.6766Z" fill="#991E20"/>
<path d="M183.212 73.8872C183.212 71.7507 183.632 69.8558 184.471 68.2025C185.336 66.5493 186.493 65.2775 187.943 64.3873C189.418 63.4971 191.059 63.052 192.865 63.052C194.442 63.052 195.815 63.3699 196.985 64.0058C198.181 64.6416 199.134 65.4428 199.847 66.4094V63.3953H205.226V84.5317H199.847V81.4414C199.16 82.4334 198.206 83.26 196.985 83.9213C195.79 84.5572 194.403 84.8751 192.826 84.8751C191.046 84.8751 189.418 84.4173 187.943 83.5016C186.493 82.586 185.336 81.3015 184.471 79.6482C183.632 77.9695 183.212 76.0492 183.212 73.8872ZM199.847 73.9635C199.847 72.6664 199.592 71.5599 199.083 70.6443C198.575 69.7032 197.888 68.991 197.023 68.5077C196.158 67.999 195.23 67.7447 194.238 67.7447C193.246 67.7447 192.33 67.9863 191.491 68.4696C190.652 68.9529 189.965 69.665 189.431 70.6061C188.922 71.5218 188.668 72.6155 188.668 73.8872C188.668 75.159 188.922 76.2781 189.431 77.2446C189.965 78.1857 190.652 78.9106 191.491 79.4193C192.356 79.928 193.272 80.1824 194.238 80.1824C195.23 80.1824 196.158 79.9407 197.023 79.4575C197.888 78.9488 198.575 78.2366 199.083 77.3209C199.592 76.3799 199.847 75.2607 199.847 73.9635Z" fill="#991E20"/>
<path d="M154.003 71.179C154.003 68.5592 154.588 66.2192 155.758 64.1589C156.954 62.0733 158.569 60.4581 160.604 59.3136C162.664 58.1436 164.966 57.5586 167.509 57.5586C170.485 57.5586 173.092 58.3216 175.331 59.8477C177.569 61.3738 179.133 63.4849 180.023 66.181H173.881C173.27 64.9093 172.406 63.9554 171.287 63.3196C170.193 62.6837 168.921 62.3658 167.471 62.3658C165.92 62.3658 164.534 62.7346 163.313 63.4722C162.117 64.1844 161.176 65.2018 160.489 66.5244C159.828 67.847 159.497 69.3985 159.497 71.179C159.497 72.934 159.828 74.4855 160.489 75.8336C161.176 77.1562 162.117 78.1863 163.313 78.9239C164.534 79.6361 165.92 79.9922 167.471 79.9922C168.921 79.9922 170.193 79.6742 171.287 79.0384C172.406 78.377 173.27 77.4105 173.881 76.1388H180.023C179.133 78.8603 177.569 80.9841 175.331 82.5102C173.118 84.0109 170.511 84.7612 167.509 84.7612C164.966 84.7612 162.664 84.1889 160.604 83.0444C158.569 81.8744 156.954 80.2592 155.758 78.199C154.588 76.1388 154.003 73.7988 154.003 71.179Z" fill="#991E20"/>
<path d="M343.505 17.083C346.023 17.083 348.058 17.8842 349.61 19.4866C351.161 21.0636 351.937 23.2764 351.937 26.1251V38.5247H346.596V26.85C346.596 25.1713 346.176 23.8869 345.337 22.9966C344.497 22.081 343.353 21.6232 341.903 21.6232C340.428 21.6232 339.258 22.081 338.393 22.9966C337.554 23.8869 337.134 25.1713 337.134 26.85V38.5247H331.793V17.3882H337.134V20.0208C337.846 19.1051 338.749 18.3929 339.843 17.8842C340.962 17.3501 342.183 17.083 343.505 17.083Z" fill="#991E20"/>
<path d="M304.562 27.8799C304.562 25.7434 304.982 23.8485 305.821 22.1952C306.686 20.542 307.843 19.2702 309.293 18.38C310.768 17.4898 312.409 17.0447 314.215 17.0447C315.792 17.0447 317.165 17.3626 318.335 17.9985C319.53 18.6343 320.484 19.4355 321.196 20.4021V17.388H326.576V38.5245H321.196V35.4341C320.51 36.4261 319.556 37.2527 318.335 37.914C317.14 38.5499 315.753 38.8678 314.176 38.8678C312.396 38.8678 310.768 38.41 309.293 37.4943C307.843 36.5787 306.686 35.2942 305.821 33.641C304.982 31.9622 304.562 30.0419 304.562 27.8799ZM321.196 27.9562C321.196 26.6591 320.942 25.5526 320.433 24.637C319.925 23.6959 319.238 22.9837 318.373 22.5005C317.508 21.9918 316.58 21.7374 315.588 21.7374C314.596 21.7374 313.68 21.979 312.841 22.4623C312.002 22.9456 311.315 23.6577 310.781 24.5988C310.272 25.5145 310.018 26.6082 310.018 27.8799C310.018 29.1517 310.272 30.2708 310.781 31.2374C311.315 32.1784 312.002 32.9033 312.841 33.412C313.706 33.9207 314.622 34.1751 315.588 34.1751C316.58 34.1751 317.508 33.9335 318.373 33.4502C319.238 32.9415 319.925 32.2293 320.433 31.3137C320.942 30.3726 321.196 29.2534 321.196 27.9562Z" fill="#991E20"/>
<path d="M298.026 14.8703C297.085 14.8703 296.296 14.5778 295.66 13.9928C295.05 13.3824 294.745 12.6321 294.745 11.7419C294.745 10.8516 295.05 10.114 295.66 9.52901C296.296 8.91857 297.085 8.61336 298.026 8.61336C298.967 8.61336 299.743 8.91857 300.353 9.52901C300.989 10.114 301.307 10.8516 301.307 11.7419C301.307 12.6321 300.989 13.3824 300.353 13.9928C299.743 14.5778 298.967 14.8703 298.026 14.8703ZM300.658 17.3884V38.5248H295.317V17.3884H300.658Z" fill="#991E20"/>
<path d="M290.04 10.2922V38.5249H284.698V10.2922H290.04Z" fill="#991E20"/>
<path d="M257.468 27.8799C257.468 25.7434 257.887 23.8485 258.727 22.1952C259.591 20.542 260.749 19.2702 262.199 18.38C263.674 17.4898 265.314 17.0447 267.12 17.0447C268.697 17.0447 270.071 17.3626 271.241 17.9985C272.436 18.6343 273.39 19.4355 274.102 20.4021V17.388H279.482V38.5245H274.102V35.4341C273.415 36.4261 272.462 37.2527 271.241 37.914C270.045 38.5499 268.659 38.8678 267.082 38.8678C265.302 38.8678 263.674 38.41 262.199 37.4943C260.749 36.5787 259.591 35.2942 258.727 33.641C257.887 31.9622 257.468 30.0419 257.468 27.8799ZM274.102 27.9562C274.102 26.6591 273.848 25.5526 273.339 24.637C272.83 23.6959 272.144 22.9837 271.279 22.5005C270.414 21.9918 269.486 21.7374 268.494 21.7374C267.502 21.7374 266.586 21.979 265.747 22.4623C264.907 22.9456 264.221 23.6577 263.686 24.5988C263.178 25.5145 262.923 26.6082 262.923 27.8799C262.923 29.1517 263.178 30.2708 263.686 31.2374C264.221 32.1784 264.907 32.9033 265.747 33.412C266.611 33.9207 267.527 34.1751 268.494 34.1751C269.486 34.1751 270.414 33.9335 271.279 33.4502C272.144 32.9415 272.83 32.2293 273.339 31.3137C273.848 30.3726 274.102 29.2534 274.102 27.9562Z" fill="#991E20"/>
<path d="M248.758 20.6693C249.444 19.5502 250.335 18.6727 251.428 18.0368C252.547 17.401 253.819 17.083 255.243 17.083V22.6914H253.832C252.153 22.6914 250.881 23.0857 250.017 23.8741C249.177 24.6626 248.758 26.0361 248.758 27.9946V38.5247H243.416V17.3882H248.758V20.6693Z" fill="#991E20"/>
<path d="M234.844 21.7761V32.0009C234.844 32.7131 235.009 33.2345 235.34 33.5651C235.696 33.8704 236.281 34.023 237.095 34.023H239.575V38.525H236.217C231.715 38.525 229.464 36.3375 229.464 31.9627V21.7761H226.946V17.3885H229.464V12.1617H234.844V17.3885H239.575V21.7761H234.844Z" fill="#991E20"/>
<path d="M215.923 38.8678C214.193 38.8678 212.642 38.5626 211.268 37.9522C209.895 37.3163 208.801 36.4642 207.987 35.396C207.199 34.3277 206.766 33.145 206.69 31.8478H212.07C212.171 32.6617 212.566 33.3357 213.252 33.8699C213.965 34.404 214.842 34.6711 215.885 34.6711C216.902 34.6711 217.691 34.4676 218.25 34.0606C218.835 33.6537 219.128 33.1323 219.128 32.4964C219.128 31.8096 218.772 31.3009 218.06 30.9703C217.373 30.6142 216.266 30.2327 214.74 29.8257C213.163 29.4442 211.866 29.05 210.849 28.643C209.857 28.236 208.992 27.6129 208.254 26.7735C207.542 25.9342 207.186 24.8023 207.186 23.378C207.186 22.208 207.517 21.1397 208.178 20.1732C208.865 19.2066 209.831 18.4436 211.078 17.884C212.349 17.3244 213.837 17.0447 215.541 17.0447C218.06 17.0447 220.069 17.6805 221.57 18.9523C223.07 20.1986 223.897 21.89 224.049 24.0266H218.937C218.861 23.1872 218.505 22.5259 217.869 22.0426C217.258 21.5339 216.432 21.2796 215.389 21.2796C214.422 21.2796 213.672 21.4576 213.138 21.8137C212.629 22.1698 212.375 22.6658 212.375 23.3017C212.375 24.0138 212.731 24.5607 213.443 24.9422C214.155 25.2983 215.262 25.6671 216.762 26.0486C218.288 26.4302 219.547 26.8244 220.539 27.2314C221.531 27.6383 222.383 28.2742 223.096 29.139C223.833 29.9783 224.215 31.0975 224.24 32.4964C224.24 33.7173 223.897 34.811 223.21 35.7775C222.549 36.744 221.582 37.5071 220.311 38.0666C219.064 38.6008 217.602 38.8678 215.923 38.8678Z" fill="#991E20"/>
<path d="M202.565 17.3888V38.5252H197.185V35.8545C196.498 36.7702 195.595 37.4951 194.476 38.0292C193.383 38.5379 192.187 38.7922 190.89 38.7922C189.237 38.7922 187.774 38.4489 186.502 37.7621C185.231 37.05 184.226 36.0198 183.488 34.6718C182.776 33.2983 182.42 31.6705 182.42 29.7883V17.3888H187.761V29.0252C187.761 30.7039 188.181 32.0011 189.02 32.9168C189.86 33.807 191.004 34.2521 192.454 34.2521C193.929 34.2521 195.087 33.807 195.926 32.9168C196.765 32.0011 197.185 30.7039 197.185 29.0252V17.3888H202.565Z" fill="#991E20"/>
<path d="M171.63 33.4502H161.023L159.268 38.5244H153.66L163.236 11.8559H169.455L179.031 38.5244H173.385L171.63 33.4502ZM170.18 29.1771L166.327 18.0366L162.473 29.1771H170.18Z" fill="#991E20"/>
</svg>
